<mxfile host="app.diagrams.net" modified="2022-09-19T22:02:49.081Z" agent="5.0 (Windows NT 10.0; Win64; x64) AppleWebKit/537.36 (KHTML, like Gecko) Chrome/105.0.0.0 Safari/537.36" etag="mefXOjymrCqIMnPaPNZj" version="20.3.3" type="github">
  <diagram id="C5RBs43oDa-KdzZeNtuy" name="Page-1">
    <mxGraphModel dx="868" dy="450" grid="1" gridSize="10" guides="1" tooltips="1" connect="1" arrows="1" fold="1" page="1" pageScale="1" pageWidth="827" pageHeight="1169" math="0" shadow="0">
      <root>
        <mxCell id="WIyWlLk6GJQsqaUBKTNV-0" />
        <mxCell id="WIyWlLk6GJQsqaUBKTNV-1" parent="WIyWlLk6GJQsqaUBKTNV-0" />
        <mxCell id="OtMv-viV7Dc7hfcX3CFG-6" value="" style="rounded=0;whiteSpace=wrap;html=1;" vertex="1" parent="WIyWlLk6GJQsqaUBKTNV-1">
          <mxGeometry x="80" y="70" width="120" height="60" as="geometry" />
        </mxCell>
        <mxCell id="OtMv-viV7Dc7hfcX3CFG-7" value="" style="rounded=0;whiteSpace=wrap;html=1;" vertex="1" parent="WIyWlLk6GJQsqaUBKTNV-1">
          <mxGeometry x="440" y="70" width="120" height="60" as="geometry" />
        </mxCell>
        <mxCell id="OtMv-viV7Dc7hfcX3CFG-8" value="" style="rounded=0;whiteSpace=wrap;html=1;" vertex="1" parent="WIyWlLk6GJQsqaUBKTNV-1">
          <mxGeometry x="440" y="310" width="120" height="60" as="geometry" />
        </mxCell>
        <mxCell id="OtMv-viV7Dc7hfcX3CFG-9" value="" style="rounded=0;whiteSpace=wrap;html=1;" vertex="1" parent="WIyWlLk6GJQsqaUBKTNV-1">
          <mxGeometry x="630" y="310" width="120" height="60" as="geometry" />
        </mxCell>
        <mxCell id="OtMv-viV7Dc7hfcX3CFG-10" value="" style="rhombus;whiteSpace=wrap;html=1;" vertex="1" parent="WIyWlLk6GJQsqaUBKTNV-1">
          <mxGeometry x="280" y="60" width="80" height="80" as="geometry" />
        </mxCell>
        <mxCell id="OtMv-viV7Dc7hfcX3CFG-11" value="" style="rhombus;whiteSpace=wrap;html=1;" vertex="1" parent="WIyWlLk6GJQsqaUBKTNV-1">
          <mxGeometry x="460" y="170" width="80" height="80" as="geometry" />
        </mxCell>
        <mxCell id="OtMv-viV7Dc7hfcX3CFG-12" value="" style="rhombus;whiteSpace=wrap;html=1;" vertex="1" parent="WIyWlLk6GJQsqaUBKTNV-1">
          <mxGeometry x="650" y="60" width="80" height="80" as="geometry" />
        </mxCell>
        <mxCell id="OtMv-viV7Dc7hfcX3CFG-15" value="" style="endArrow=classic;html=1;rounded=0;exitX=1;exitY=0.5;exitDx=0;exitDy=0;entryX=0;entryY=0.5;entryDx=0;entryDy=0;" edge="1" parent="WIyWlLk6GJQsqaUBKTNV-1" source="OtMv-viV7Dc7hfcX3CFG-6" target="OtMv-viV7Dc7hfcX3CFG-10">
          <mxGeometry width="50" height="50" relative="1" as="geometry">
            <mxPoint x="220" y="130" as="sourcePoint" />
            <mxPoint x="270" y="100" as="targetPoint" />
            <Array as="points" />
          </mxGeometry>
        </mxCell>
        <mxCell id="OtMv-viV7Dc7hfcX3CFG-17" value="" style="endArrow=classic;html=1;rounded=0;exitX=1;exitY=0.5;exitDx=0;exitDy=0;entryX=0;entryY=0.5;entryDx=0;entryDy=0;" edge="1" parent="WIyWlLk6GJQsqaUBKTNV-1" source="OtMv-viV7Dc7hfcX3CFG-10" target="OtMv-viV7Dc7hfcX3CFG-7">
          <mxGeometry width="50" height="50" relative="1" as="geometry">
            <mxPoint x="370" y="120" as="sourcePoint" />
            <mxPoint x="430" y="100" as="targetPoint" />
          </mxGeometry>
        </mxCell>
        <mxCell id="OtMv-viV7Dc7hfcX3CFG-22" value="" style="endArrow=classic;html=1;rounded=0;entryX=0.5;entryY=0;entryDx=0;entryDy=0;exitX=0.5;exitY=1;exitDx=0;exitDy=0;" edge="1" parent="WIyWlLk6GJQsqaUBKTNV-1" source="OtMv-viV7Dc7hfcX3CFG-7" target="OtMv-viV7Dc7hfcX3CFG-11">
          <mxGeometry width="50" height="50" relative="1" as="geometry">
            <mxPoint x="500" y="140" as="sourcePoint" />
            <mxPoint x="510" y="140" as="targetPoint" />
          </mxGeometry>
        </mxCell>
        <mxCell id="OtMv-viV7Dc7hfcX3CFG-23" value="" style="endArrow=classic;html=1;rounded=0;exitX=0.5;exitY=1;exitDx=0;exitDy=0;entryX=0.5;entryY=0;entryDx=0;entryDy=0;" edge="1" parent="WIyWlLk6GJQsqaUBKTNV-1" source="OtMv-viV7Dc7hfcX3CFG-11" target="OtMv-viV7Dc7hfcX3CFG-8">
          <mxGeometry width="50" height="50" relative="1" as="geometry">
            <mxPoint x="470" y="300" as="sourcePoint" />
            <mxPoint x="520" y="250" as="targetPoint" />
          </mxGeometry>
        </mxCell>
        <mxCell id="OtMv-viV7Dc7hfcX3CFG-24" value="" style="endArrow=classic;html=1;rounded=0;exitX=1;exitY=0.5;exitDx=0;exitDy=0;entryX=0;entryY=0.5;entryDx=0;entryDy=0;" edge="1" parent="WIyWlLk6GJQsqaUBKTNV-1" source="OtMv-viV7Dc7hfcX3CFG-7" target="OtMv-viV7Dc7hfcX3CFG-12">
          <mxGeometry width="50" height="50" relative="1" as="geometry">
            <mxPoint x="590" y="140" as="sourcePoint" />
            <mxPoint x="640" y="90" as="targetPoint" />
          </mxGeometry>
        </mxCell>
        <mxCell id="OtMv-viV7Dc7hfcX3CFG-25" value="" style="endArrow=classic;html=1;rounded=0;exitX=0.5;exitY=1;exitDx=0;exitDy=0;" edge="1" parent="WIyWlLk6GJQsqaUBKTNV-1" source="OtMv-viV7Dc7hfcX3CFG-12" target="OtMv-viV7Dc7hfcX3CFG-9">
          <mxGeometry width="50" height="50" relative="1" as="geometry">
            <mxPoint x="650" y="210" as="sourcePoint" />
            <mxPoint x="690" y="300" as="targetPoint" />
          </mxGeometry>
        </mxCell>
        <mxCell id="OtMv-viV7Dc7hfcX3CFG-26" value="Gera" style="text;html=1;strokeColor=none;fillColor=none;align=center;verticalAlign=middle;whiteSpace=wrap;rounded=0;" vertex="1" parent="WIyWlLk6GJQsqaUBKTNV-1">
          <mxGeometry x="290" y="80" width="60" height="30" as="geometry" />
        </mxCell>
        <mxCell id="OtMv-viV7Dc7hfcX3CFG-27" value="Cliente" style="text;html=1;strokeColor=none;fillColor=none;align=center;verticalAlign=middle;whiteSpace=wrap;rounded=0;" vertex="1" parent="WIyWlLk6GJQsqaUBKTNV-1">
          <mxGeometry x="110" y="85" width="60" height="30" as="geometry" />
        </mxCell>
        <mxCell id="OtMv-viV7Dc7hfcX3CFG-28" value="Pedido" style="text;html=1;strokeColor=none;fillColor=none;align=center;verticalAlign=middle;whiteSpace=wrap;rounded=0;" vertex="1" parent="WIyWlLk6GJQsqaUBKTNV-1">
          <mxGeometry x="480" y="80" width="60" height="30" as="geometry" />
        </mxCell>
        <mxCell id="OtMv-viV7Dc7hfcX3CFG-29" value="Executa" style="text;html=1;strokeColor=none;fillColor=none;align=center;verticalAlign=middle;whiteSpace=wrap;rounded=0;" vertex="1" parent="WIyWlLk6GJQsqaUBKTNV-1">
          <mxGeometry x="660" y="85" width="60" height="30" as="geometry" />
        </mxCell>
        <mxCell id="OtMv-viV7Dc7hfcX3CFG-30" value="Ordem de ServiÃ§o" style="text;html=1;strokeColor=none;fillColor=none;align=center;verticalAlign=middle;whiteSpace=wrap;rounded=0;" vertex="1" parent="WIyWlLk6GJQsqaUBKTNV-1">
          <mxGeometry x="670" y="325" width="60" height="30" as="geometry" />
        </mxCell>
        <mxCell id="OtMv-viV7Dc7hfcX3CFG-31" value="Responsavel" style="text;html=1;strokeColor=none;fillColor=none;align=center;verticalAlign=middle;whiteSpace=wrap;rounded=0;" vertex="1" parent="WIyWlLk6GJQsqaUBKTNV-1">
          <mxGeometry x="460" y="325" width="60" height="30" as="geometry" />
        </mxCell>
        <mxCell id="OtMv-viV7Dc7hfcX3CFG-32" value="Possui" style="text;html=1;strokeColor=none;fillColor=none;align=center;verticalAlign=middle;whiteSpace=wrap;rounded=0;" vertex="1" parent="WIyWlLk6GJQsqaUBKTNV-1">
          <mxGeometry x="470" y="195" width="60" height="30" as="geometry" />
        </mxCell>
      </root>
    </mxGraphModel>
  </diagram>
</mxfile>
